<svg width="17" height="17" viewBox="0 0 17 17" fill="none" xmlns="http://www.w3.org/2000/svg">
<path d="M8.44519 16.2373C12.5874 16.2373 15.9452 12.8796 15.9452 8.7373C15.9452 4.59505 12.5874 1.2373 8.44519 1.2373C4.30294 1.2373 0.94519 4.59505 0.94519 8.7373C0.94519 12.8796 4.30294 16.2373 8.44519 16.2373Z" stroke="#6C6C6C" stroke-linecap="round" stroke-linejoin="round"/>
<path d="M8.44507 12.0306V13.6123M10.6951 6.1123C10.1813 5.59855 9.27682 5.24155 8.44507 5.21905L10.6951 6.1123ZM6.19507 10.9873C6.67807 11.6323 7.57732 11.9998 8.44507 12.0306L6.19507 10.9873ZM8.44507 5.21905C7.45507 5.19205 6.57007 5.6398 6.57007 6.8623C6.57007 9.1123 10.6951 7.9873 10.6951 10.2373C10.6951 11.5206 9.59707 12.0718 8.44507 12.0306V5.21905ZM8.44507 5.21905V3.8623V5.21905Z" stroke="#6C6C6C" stroke-linecap="round" stroke-linejoin="round"/>
</svg>
