<svg width="23" height="20" viewBox="0 0 23 20" fill="none" xmlns="http://www.w3.org/2000/svg">
<path d="M11.4902 4.5C14.2502 4.5 16.4902 6.74 16.4902 9.5C16.4902 10.15 16.3602 10.76 16.1302 11.33L19.0502 14.25C20.5602 12.99 21.7502 11.36 22.4802 9.5C20.7502 5.11 16.4802 2 11.4802 2C10.0802 2 8.74023 2.25 7.50023 2.7L9.66023 4.86C10.2302 4.63 10.8402 4.5 11.4902 4.5ZM1.49023 1.77L3.77023 4.05L4.23023 4.51C2.57023 5.8 1.27023 7.52 0.490234 9.5C2.22023 13.89 6.49023 17 11.4902 17C13.0402 17 14.5202 16.7 15.8702 16.16L16.2902 16.58L19.2202 19.5L20.4902 18.23L2.76023 0.5L1.49023 1.77ZM7.02023 7.3L8.57023 8.85C8.52023 9.06 8.49023 9.28 8.49023 9.5C8.49023 11.16 9.83023 12.5 11.4902 12.5C11.7102 12.5 11.9302 12.47 12.1402 12.42L13.6902 13.97C13.0202 14.3 12.2802 14.5 11.4902 14.5C8.73023 14.5 6.49023 12.26 6.49023 9.5C6.49023 8.71 6.69023 7.97 7.02023 7.3ZM11.3302 6.52L14.4802 9.67L14.5002 9.51C14.5002 7.85 13.1602 6.51 11.5002 6.51L11.3302 6.52Z" fill="#747474"/>
</svg>
