<svg width="18" height="19" viewBox="0 0 18 19" fill="none" xmlns="http://www.w3.org/2000/svg">
<path d="M2.25098 4.82483H3.75098H15.751" stroke="#6C6C6C" stroke-linecap="round" stroke-linejoin="round"/>
<path d="M14.751 4.82483C14.751 4.54869 14.5271 4.32483 14.251 4.32483C13.9748 4.32483 13.751 4.54869 13.751 4.82483H14.751ZM4.25098 4.82483C4.25098 4.54869 4.02712 4.32483 3.75098 4.32483C3.47483 4.32483 3.25098 4.54869 3.25098 4.82483H4.25098ZM5.50098 4.82483C5.50098 5.10097 5.72483 5.32483 6.00098 5.32483C6.27712 5.32483 6.50098 5.10097 6.50098 4.82483H5.50098ZM11.501 4.82483C11.501 5.10097 11.7248 5.32483 12.001 5.32483C12.2771 5.32483 12.501 5.10097 12.501 4.82483H11.501ZM13.751 4.82483V15.3248H14.751V4.82483H13.751ZM13.751 15.3248C13.751 15.8771 13.3033 16.3248 12.751 16.3248V17.3248C13.8555 17.3248 14.751 16.4294 14.751 15.3248H13.751ZM12.751 16.3248H5.25098V17.3248H12.751V16.3248ZM5.25098 16.3248C4.69869 16.3248 4.25098 15.8771 4.25098 15.3248H3.25098C3.25098 16.4294 4.14641 17.3248 5.25098 17.3248V16.3248ZM4.25098 15.3248V4.82483H3.25098V15.3248H4.25098ZM6.50098 4.82483V3.32483H5.50098V4.82483H6.50098ZM6.50098 3.32483C6.50098 2.77254 6.94869 2.32483 7.50098 2.32483V1.32483C6.39641 1.32483 5.50098 2.22026 5.50098 3.32483H6.50098ZM7.50098 2.32483H10.501V1.32483H7.50098V2.32483ZM10.501 2.32483C11.0533 2.32483 11.501 2.77254 11.501 3.32483H12.501C12.501 2.22026 11.6055 1.32483 10.501 1.32483V2.32483ZM11.501 3.32483V4.82483H12.501V3.32483H11.501Z" fill="#6C6C6C"/>
<path d="M7.50098 8.57483V13.0748" stroke="#6C6C6C" stroke-linecap="round" stroke-linejoin="round"/>
<path d="M10.501 8.57483V13.0748" stroke="#6C6C6C" stroke-linecap="round" stroke-linejoin="round"/>
</svg>
