<svg width="16" height="15" viewBox="0 0 16 15" fill="none" xmlns="http://www.w3.org/2000/svg">
<path d="M0.503912 0.314703C0.603417 0.214947 0.721625 0.1358 0.851764 0.0817982C0.981904 0.0277962 1.12142 0 1.26232 0C1.40322 0 1.54273 0.0277962 1.67287 0.0817982C1.80301 0.1358 1.92122 0.214947 2.02073 0.314703L7.68949 5.98561L13.3583 0.314703C13.4579 0.215108 13.5761 0.136104 13.7062 0.0822038C13.8363 0.0283032 13.9758 0.000560843 14.1167 0.000560843C14.2575 0.000560843 14.397 0.0283032 14.5271 0.0822038C14.6572 0.136104 14.7755 0.215108 14.8751 0.314703C14.9747 0.414299 15.0537 0.532535 15.1076 0.662663C15.1615 0.79279 15.1892 0.932261 15.1892 1.07311C15.1892 1.21396 15.1615 1.35343 15.1076 1.48356C15.0537 1.61368 14.9747 1.73192 14.8751 1.83152L9.20416 7.50028L14.8751 13.169C14.9747 13.2686 15.0537 13.3869 15.1076 13.517C15.1615 13.6471 15.1892 13.7866 15.1892 13.9275C15.1892 14.0683 15.1615 14.2078 15.1076 14.3379C15.0537 14.468 14.9747 14.5863 14.8751 14.6859C14.7755 14.7855 14.6572 14.8645 14.5271 14.9184C14.397 14.9723 14.2575 15 14.1167 15C13.9758 15 13.8363 14.9723 13.7062 14.9184C13.5761 14.8645 13.4579 14.7855 13.3583 14.6859L7.68949 9.01495L2.02073 14.6859C1.92113 14.7855 1.80289 14.8645 1.67277 14.9184C1.54264 14.9723 1.40317 15 1.26232 15C1.12147 15 0.981999 14.9723 0.851872 14.9184C0.721744 14.8645 0.603508 14.7855 0.503912 14.6859C0.404317 14.5863 0.325313 14.468 0.271413 14.3379C0.217512 14.2078 0.18977 14.0683 0.18977 13.9275C0.18977 13.7866 0.217512 13.6471 0.271413 13.517C0.325313 13.3869 0.404317 13.2686 0.503912 13.169L6.17482 7.50028L0.503912 1.83152C0.404156 1.73201 0.325009 1.6138 0.271007 1.48366C0.217005 1.35352 0.189209 1.21401 0.189209 1.07311C0.189209 0.93221 0.217005 0.792695 0.271007 0.662555C0.325009 0.532416 0.404156 0.414208 0.503912 0.314703Z" fill="black"/>
</svg>
